<mxfile host="Electron" modified="2024-07-12T22:53:42.833Z" agent="Mozilla/5.0 (Macintosh; Intel Mac OS X 10_15_7) AppleWebKit/537.36 (KHTML, like Gecko) draw.io/24.6.4 Chrome/124.0.6367.207 Electron/30.0.6 Safari/537.36" etag="eba2_jiS99yPxj7Plyj2" version="24.6.4" type="device">
  <diagram name="Page-1" id="AO98jCeg3_muiPMacAWm">
    <mxGraphModel dx="1103" dy="1826" grid="1" gridSize="10" guides="1" tooltips="1" connect="1" arrows="1" fold="1" page="1" pageScale="1" pageWidth="827" pageHeight="1169" math="0" shadow="0">
      <root>
        <mxCell id="0" />
        <mxCell id="1" parent="0" />
        <mxCell id="Rjii2UMoXP7_Jk80CpH7-58" value="Portal Design" style="rounded=0;whiteSpace=wrap;html=1;verticalAlign=top;" vertex="1" parent="1">
          <mxGeometry x="833.5" y="820" width="183" height="190" as="geometry" />
        </mxCell>
        <mxCell id="Rjii2UMoXP7_Jk80CpH7-16" value="" style="rounded=1;whiteSpace=wrap;html=1;" vertex="1" parent="1">
          <mxGeometry x="60" width="720" height="450" as="geometry" />
        </mxCell>
        <mxCell id="Rjii2UMoXP7_Jk80CpH7-34" style="edgeStyle=orthogonalEdgeStyle;rounded=0;orthogonalLoop=1;jettySize=auto;html=1;exitX=0.5;exitY=0;exitDx=0;exitDy=0;entryX=0;entryY=0.5;entryDx=0;entryDy=0;" edge="1" parent="1" source="Rjii2UMoXP7_Jk80CpH7-14" target="Rjii2UMoXP7_Jk80CpH7-32">
          <mxGeometry relative="1" as="geometry" />
        </mxCell>
        <mxCell id="Rjii2UMoXP7_Jk80CpH7-14" value="Front-end, editable + GenAI iteractive" style="rounded=1;whiteSpace=wrap;html=1;fillColor=#fff2cc;strokeColor=#d6b656;verticalAlign=top;" vertex="1" parent="1">
          <mxGeometry x="500" y="150" width="250" height="230" as="geometry" />
        </mxCell>
        <mxCell id="Rjii2UMoXP7_Jk80CpH7-9" style="edgeStyle=orthogonalEdgeStyle;rounded=0;orthogonalLoop=1;jettySize=auto;html=1;exitX=1;exitY=0.5;exitDx=0;exitDy=0;entryX=0;entryY=0.5;entryDx=0;entryDy=0;" edge="1" parent="1" source="Rjii2UMoXP7_Jk80CpH7-1" target="Rjii2UMoXP7_Jk80CpH7-2">
          <mxGeometry relative="1" as="geometry" />
        </mxCell>
        <mxCell id="Rjii2UMoXP7_Jk80CpH7-1" value="Transcripts" style="rounded=1;whiteSpace=wrap;html=1;" vertex="1" parent="1">
          <mxGeometry x="80" y="240" width="120" height="60" as="geometry" />
        </mxCell>
        <mxCell id="Rjii2UMoXP7_Jk80CpH7-6" style="edgeStyle=orthogonalEdgeStyle;rounded=0;orthogonalLoop=1;jettySize=auto;html=1;exitX=0.5;exitY=1;exitDx=0;exitDy=0;" edge="1" parent="1" source="Rjii2UMoXP7_Jk80CpH7-2" target="Rjii2UMoXP7_Jk80CpH7-5">
          <mxGeometry relative="1" as="geometry" />
        </mxCell>
        <mxCell id="Rjii2UMoXP7_Jk80CpH7-7" style="edgeStyle=orthogonalEdgeStyle;rounded=0;orthogonalLoop=1;jettySize=auto;html=1;exitX=1;exitY=0.5;exitDx=0;exitDy=0;entryX=0;entryY=0.5;entryDx=0;entryDy=0;" edge="1" parent="1" source="Rjii2UMoXP7_Jk80CpH7-2" target="Rjii2UMoXP7_Jk80CpH7-4">
          <mxGeometry relative="1" as="geometry" />
        </mxCell>
        <mxCell id="Rjii2UMoXP7_Jk80CpH7-8" style="edgeStyle=orthogonalEdgeStyle;rounded=0;orthogonalLoop=1;jettySize=auto;html=1;exitX=1;exitY=0.5;exitDx=0;exitDy=0;entryX=0;entryY=0.5;entryDx=0;entryDy=0;" edge="1" parent="1" source="Rjii2UMoXP7_Jk80CpH7-2" target="Rjii2UMoXP7_Jk80CpH7-3">
          <mxGeometry relative="1" as="geometry" />
        </mxCell>
        <mxCell id="Rjii2UMoXP7_Jk80CpH7-2" value="Organised (JSON/LaTeX), Detailed Notes" style="rounded=1;whiteSpace=wrap;html=1;" vertex="1" parent="1">
          <mxGeometry x="290" y="240" width="120" height="60" as="geometry" />
        </mxCell>
        <mxCell id="Rjii2UMoXP7_Jk80CpH7-12" style="edgeStyle=orthogonalEdgeStyle;rounded=0;orthogonalLoop=1;jettySize=auto;html=1;exitX=1;exitY=0.5;exitDx=0;exitDy=0;entryX=1;entryY=0.5;entryDx=0;entryDy=0;" edge="1" parent="1" source="Rjii2UMoXP7_Jk80CpH7-3" target="Rjii2UMoXP7_Jk80CpH7-4">
          <mxGeometry relative="1" as="geometry">
            <Array as="points">
              <mxPoint x="720" y="320" />
              <mxPoint x="720" y="220" />
            </Array>
          </mxGeometry>
        </mxCell>
        <mxCell id="Rjii2UMoXP7_Jk80CpH7-13" value="sync" style="edgeLabel;html=1;align=center;verticalAlign=middle;resizable=0;points=[];" vertex="1" connectable="0" parent="Rjii2UMoXP7_Jk80CpH7-12">
          <mxGeometry y="-3" relative="1" as="geometry">
            <mxPoint as="offset" />
          </mxGeometry>
        </mxCell>
        <mxCell id="Rjii2UMoXP7_Jk80CpH7-3" value="Cheatsheet" style="rounded=1;whiteSpace=wrap;html=1;" vertex="1" parent="1">
          <mxGeometry x="560" y="290" width="120" height="60" as="geometry" />
        </mxCell>
        <mxCell id="Rjii2UMoXP7_Jk80CpH7-4" value="Highlights&lt;div&gt;(JSON)&lt;/div&gt;" style="rounded=1;whiteSpace=wrap;html=1;" vertex="1" parent="1">
          <mxGeometry x="560" y="190" width="120" height="60" as="geometry" />
        </mxCell>
        <mxCell id="Rjii2UMoXP7_Jk80CpH7-36" style="edgeStyle=orthogonalEdgeStyle;rounded=0;orthogonalLoop=1;jettySize=auto;html=1;exitX=0.5;exitY=1;exitDx=0;exitDy=0;entryX=0.5;entryY=0;entryDx=0;entryDy=0;" edge="1" parent="1" source="Rjii2UMoXP7_Jk80CpH7-5" target="Rjii2UMoXP7_Jk80CpH7-35">
          <mxGeometry relative="1" as="geometry">
            <Array as="points">
              <mxPoint x="350" y="410" />
              <mxPoint x="500" y="410" />
              <mxPoint x="500" y="430" />
            </Array>
          </mxGeometry>
        </mxCell>
        <mxCell id="Rjii2UMoXP7_Jk80CpH7-5" value="Anki flash cards" style="rounded=1;whiteSpace=wrap;html=1;" vertex="1" parent="1">
          <mxGeometry x="290" y="330" width="120" height="60" as="geometry" />
        </mxCell>
        <mxCell id="Rjii2UMoXP7_Jk80CpH7-11" style="edgeStyle=orthogonalEdgeStyle;rounded=0;orthogonalLoop=1;jettySize=auto;html=1;exitX=0.5;exitY=1;exitDx=0;exitDy=0;entryX=0.5;entryY=0;entryDx=0;entryDy=0;" edge="1" parent="1" source="Rjii2UMoXP7_Jk80CpH7-20" target="Rjii2UMoXP7_Jk80CpH7-2">
          <mxGeometry relative="1" as="geometry" />
        </mxCell>
        <mxCell id="Rjii2UMoXP7_Jk80CpH7-15" value="MongoDB" style="strokeWidth=2;html=1;shape=mxgraph.flowchart.database;whiteSpace=wrap;" vertex="1" parent="1">
          <mxGeometry x="60" width="70" height="60" as="geometry" />
        </mxCell>
        <mxCell id="Rjii2UMoXP7_Jk80CpH7-17" value="" style="sketch=0;outlineConnect=0;fontColor=#232F3E;gradientColor=none;fillColor=#232F3D;strokeColor=none;dashed=0;verticalLabelPosition=bottom;verticalAlign=top;align=center;html=1;fontSize=12;fontStyle=0;aspect=fixed;pointerEvents=1;shape=mxgraph.aws4.chat;" vertex="1" parent="1">
          <mxGeometry x="220" y="234.87" width="38" height="33.13" as="geometry" />
        </mxCell>
        <mxCell id="Rjii2UMoXP7_Jk80CpH7-18" value="" style="sketch=0;outlineConnect=0;fontColor=#232F3E;gradientColor=none;fillColor=#232F3D;strokeColor=none;dashed=0;verticalLabelPosition=bottom;verticalAlign=top;align=center;html=1;fontSize=12;fontStyle=0;aspect=fixed;pointerEvents=1;shape=mxgraph.aws4.chat;" vertex="1" parent="1">
          <mxGeometry x="434.5" y="236" width="38" height="33.13" as="geometry" />
        </mxCell>
        <mxCell id="Rjii2UMoXP7_Jk80CpH7-33" style="edgeStyle=orthogonalEdgeStyle;rounded=0;orthogonalLoop=1;jettySize=auto;html=1;exitX=1;exitY=0.5;exitDx=0;exitDy=0;" edge="1" parent="1" source="Rjii2UMoXP7_Jk80CpH7-20" target="Rjii2UMoXP7_Jk80CpH7-32">
          <mxGeometry relative="1" as="geometry" />
        </mxCell>
        <mxCell id="Rjii2UMoXP7_Jk80CpH7-20" value="Front-end" style="rounded=1;whiteSpace=wrap;html=1;fillColor=#fff2cc;strokeColor=#d6b656;verticalAlign=top;" vertex="1" parent="1">
          <mxGeometry x="350" y="70" width="170" height="100" as="geometry" />
        </mxCell>
        <mxCell id="Rjii2UMoXP7_Jk80CpH7-10" value="Human-in-the-loop" style="rounded=1;whiteSpace=wrap;html=1;" vertex="1" parent="1">
          <mxGeometry x="370" y="100" width="120" height="60" as="geometry" />
        </mxCell>
        <mxCell id="Rjii2UMoXP7_Jk80CpH7-23" style="edgeStyle=orthogonalEdgeStyle;rounded=0;orthogonalLoop=1;jettySize=auto;html=1;exitX=0.5;exitY=1;exitDx=0;exitDy=0;" edge="1" parent="1" source="Rjii2UMoXP7_Jk80CpH7-22">
          <mxGeometry relative="1" as="geometry">
            <mxPoint x="350" y="240" as="targetPoint" />
          </mxGeometry>
        </mxCell>
        <mxCell id="Rjii2UMoXP7_Jk80CpH7-22" value="Personal note-taking" style="rounded=1;whiteSpace=wrap;html=1;" vertex="1" parent="1">
          <mxGeometry x="190" y="110" width="120" height="60" as="geometry" />
        </mxCell>
        <mxCell id="Rjii2UMoXP7_Jk80CpH7-24" value="Flask" style="rounded=0;whiteSpace=wrap;html=1;" vertex="1" parent="1">
          <mxGeometry x="150" y="565" width="100" height="50" as="geometry" />
        </mxCell>
        <mxCell id="Rjii2UMoXP7_Jk80CpH7-25" value="DJango" style="rounded=0;whiteSpace=wrap;html=1;" vertex="1" parent="1">
          <mxGeometry x="270" y="620" width="100" height="50" as="geometry" />
        </mxCell>
        <mxCell id="Rjii2UMoXP7_Jk80CpH7-26" value="React" style="rounded=0;whiteSpace=wrap;html=1;" vertex="1" parent="1">
          <mxGeometry x="439.5" y="562.5" width="100" height="55" as="geometry" />
        </mxCell>
        <mxCell id="Rjii2UMoXP7_Jk80CpH7-46" value="" style="edgeStyle=orthogonalEdgeStyle;rounded=0;orthogonalLoop=1;jettySize=auto;html=1;" edge="1" parent="1" source="Rjii2UMoXP7_Jk80CpH7-27" target="Rjii2UMoXP7_Jk80CpH7-39">
          <mxGeometry relative="1" as="geometry" />
        </mxCell>
        <mxCell id="Rjii2UMoXP7_Jk80CpH7-27" value="Student&lt;div&gt;(async)&lt;/div&gt;" style="shape=umlActor;verticalLabelPosition=bottom;verticalAlign=top;html=1;outlineConnect=0;" vertex="1" parent="1">
          <mxGeometry x="717" y="490" width="30" height="60" as="geometry" />
        </mxCell>
        <mxCell id="Rjii2UMoXP7_Jk80CpH7-47" value="" style="edgeStyle=orthogonalEdgeStyle;rounded=0;orthogonalLoop=1;jettySize=auto;html=1;" edge="1" parent="1" source="Rjii2UMoXP7_Jk80CpH7-29" target="Rjii2UMoXP7_Jk80CpH7-44">
          <mxGeometry relative="1" as="geometry" />
        </mxCell>
        <mxCell id="Rjii2UMoXP7_Jk80CpH7-49" value="store" style="edgeLabel;html=1;align=center;verticalAlign=middle;resizable=0;points=[];" vertex="1" connectable="0" parent="Rjii2UMoXP7_Jk80CpH7-47">
          <mxGeometry x="-0.2258" y="1" relative="1" as="geometry">
            <mxPoint as="offset" />
          </mxGeometry>
        </mxCell>
        <mxCell id="Rjii2UMoXP7_Jk80CpH7-29" value="" style="html=1;verticalLabelPosition=bottom;align=center;labelBackgroundColor=#ffffff;verticalAlign=top;strokeWidth=2;strokeColor=#0080F0;shadow=0;dashed=0;shape=mxgraph.ios7.icons.monitor;" vertex="1" parent="1">
          <mxGeometry x="587" y="637.5" width="50" height="30" as="geometry" />
        </mxCell>
        <mxCell id="Rjii2UMoXP7_Jk80CpH7-30" value="Study Notes" style="shape=cylinder3;whiteSpace=wrap;html=1;boundedLbl=1;backgroundOutline=1;size=15;" vertex="1" parent="1">
          <mxGeometry x="280" y="830" width="60" height="80" as="geometry" />
        </mxCell>
        <mxCell id="Rjii2UMoXP7_Jk80CpH7-31" value="" style="shape=cylinder3;whiteSpace=wrap;html=1;boundedLbl=1;backgroundOutline=1;size=15;" vertex="1" parent="1">
          <mxGeometry x="80" y="480" width="60" height="80" as="geometry" />
        </mxCell>
        <mxCell id="Rjii2UMoXP7_Jk80CpH7-32" value="Sharing (private/public, editable/viewer)&lt;div&gt;+ contact&lt;div&gt;(stars)&lt;/div&gt;&lt;/div&gt;" style="rounded=1;whiteSpace=wrap;html=1;fillColor=#f5f5f5;fontColor=#333333;strokeColor=#666666;" vertex="1" parent="1">
          <mxGeometry x="650" y="40" width="200" height="60" as="geometry" />
        </mxCell>
        <mxCell id="Rjii2UMoXP7_Jk80CpH7-35" value="Quiz" style="rounded=0;whiteSpace=wrap;html=1;" vertex="1" parent="1">
          <mxGeometry x="439.5" y="440" width="120" height="40" as="geometry" />
        </mxCell>
        <mxCell id="Rjii2UMoXP7_Jk80CpH7-40" value="" style="edgeStyle=orthogonalEdgeStyle;rounded=0;orthogonalLoop=1;jettySize=auto;html=1;entryX=0;entryY=0;entryDx=50;entryDy=50;entryPerimeter=0;" edge="1" parent="1" source="Rjii2UMoXP7_Jk80CpH7-38" target="Rjii2UMoXP7_Jk80CpH7-39">
          <mxGeometry relative="1" as="geometry" />
        </mxCell>
        <mxCell id="Rjii2UMoXP7_Jk80CpH7-38" value="Lecture" style="html=1;verticalLabelPosition=bottom;align=center;labelBackgroundColor=#ffffff;verticalAlign=top;strokeWidth=2;strokeColor=#0080F0;shadow=0;dashed=0;shape=mxgraph.ios7.icons.monitor;" vertex="1" parent="1">
          <mxGeometry x="900" y="640" width="50" height="30" as="geometry" />
        </mxCell>
        <mxCell id="Rjii2UMoXP7_Jk80CpH7-39" value="&lt;font style=&quot;font-size: 8px;&quot;&gt;Transcript&lt;/font&gt;&lt;div&gt;&lt;font style=&quot;font-size: 8px;&quot;&gt;(.txt)&lt;/font&gt;&lt;/div&gt;" style="shape=note;whiteSpace=wrap;html=1;backgroundOutline=1;darkOpacity=0.05;" vertex="1" parent="1">
          <mxGeometry x="707" y="605" width="50" height="85" as="geometry" />
        </mxCell>
        <mxCell id="Rjii2UMoXP7_Jk80CpH7-41" value="" style="sketch=0;aspect=fixed;pointerEvents=1;shadow=0;dashed=0;html=1;strokeColor=none;labelPosition=center;verticalLabelPosition=bottom;verticalAlign=top;align=center;shape=mxgraph.mscae.other.powerpoint;fillColor=#DE5D24;" vertex="1" parent="1">
          <mxGeometry x="777" y="670" width="50" height="50" as="geometry" />
        </mxCell>
        <mxCell id="Rjii2UMoXP7_Jk80CpH7-42" value="" style="edgeStyle=orthogonalEdgeStyle;rounded=0;orthogonalLoop=1;jettySize=auto;html=1;entryX=1;entryY=0.5;entryDx=0;entryDy=0;entryPerimeter=0;exitX=0.002;exitY=0.518;exitDx=0;exitDy=0;exitPerimeter=0;" edge="1" parent="1" source="Rjii2UMoXP7_Jk80CpH7-38" target="Rjii2UMoXP7_Jk80CpH7-41">
          <mxGeometry relative="1" as="geometry">
            <mxPoint x="890" y="625" as="sourcePoint" />
            <mxPoint x="837" y="640" as="targetPoint" />
            <Array as="points">
              <mxPoint x="864" y="656" />
              <mxPoint x="864" y="695" />
            </Array>
          </mxGeometry>
        </mxCell>
        <mxCell id="Rjii2UMoXP7_Jk80CpH7-43" value="" style="dashed=0;outlineConnect=0;html=1;align=center;labelPosition=center;verticalLabelPosition=bottom;verticalAlign=top;shape=mxgraph.webicons.adobe_pdf;fillColor=#F40C0C;gradientColor=#610603" vertex="1" parent="1">
          <mxGeometry x="787" y="730" width="30" height="31.2" as="geometry" />
        </mxCell>
        <mxCell id="Rjii2UMoXP7_Jk80CpH7-44" value="" style="shape=cylinder3;whiteSpace=wrap;html=1;boundedLbl=1;backgroundOutline=1;size=15;" vertex="1" parent="1">
          <mxGeometry x="582" y="730" width="60" height="80" as="geometry" />
        </mxCell>
        <mxCell id="Rjii2UMoXP7_Jk80CpH7-45" style="edgeStyle=orthogonalEdgeStyle;rounded=0;orthogonalLoop=1;jettySize=auto;html=1;exitX=0;exitY=0.5;exitDx=0;exitDy=0;exitPerimeter=0;entryX=1.063;entryY=0.338;entryDx=0;entryDy=0;entryPerimeter=0;" edge="1" parent="1" source="Rjii2UMoXP7_Jk80CpH7-39" target="Rjii2UMoXP7_Jk80CpH7-29">
          <mxGeometry relative="1" as="geometry" />
        </mxCell>
        <mxCell id="Rjii2UMoXP7_Jk80CpH7-48" value="upload" style="edgeLabel;html=1;align=center;verticalAlign=middle;resizable=0;points=[];" vertex="1" connectable="0" parent="Rjii2UMoXP7_Jk80CpH7-45">
          <mxGeometry x="-0.087" y="2" relative="1" as="geometry">
            <mxPoint x="-1" as="offset" />
          </mxGeometry>
        </mxCell>
        <mxCell id="Rjii2UMoXP7_Jk80CpH7-52" style="edgeStyle=orthogonalEdgeStyle;rounded=0;orthogonalLoop=1;jettySize=auto;html=1;exitX=0;exitY=0.5;exitDx=0;exitDy=0;exitPerimeter=0;" edge="1" parent="1" source="Rjii2UMoXP7_Jk80CpH7-50" target="Rjii2UMoXP7_Jk80CpH7-51">
          <mxGeometry relative="1" as="geometry" />
        </mxCell>
        <mxCell id="Rjii2UMoXP7_Jk80CpH7-50" value="processing (chunking)" style="html=1;whiteSpace=wrap;strokeColor=none;fillColor=#0079D6;labelPosition=center;verticalLabelPosition=middle;verticalAlign=top;align=center;fontSize=12;outlineConnect=0;spacingTop=-6;fontColor=#FFFFFF;sketch=0;shape=mxgraph.sitemap.script;" vertex="1" parent="1">
          <mxGeometry x="434.5" y="740" width="120" height="70" as="geometry" />
        </mxCell>
        <mxCell id="Rjii2UMoXP7_Jk80CpH7-51" value="" style="sketch=0;outlineConnect=0;fontColor=#232F3E;gradientColor=none;fillColor=#232F3D;strokeColor=none;dashed=0;verticalLabelPosition=bottom;verticalAlign=top;align=center;html=1;fontSize=12;fontStyle=0;aspect=fixed;pointerEvents=1;shape=mxgraph.aws4.chat;" vertex="1" parent="1">
          <mxGeometry x="362" y="758.4300000000001" width="38" height="33.13" as="geometry" />
        </mxCell>
        <mxCell id="Rjii2UMoXP7_Jk80CpH7-53" style="edgeStyle=orthogonalEdgeStyle;rounded=0;orthogonalLoop=1;jettySize=auto;html=1;entryX=0.5;entryY=0;entryDx=0;entryDy=0;entryPerimeter=0;" edge="1" parent="1" source="Rjii2UMoXP7_Jk80CpH7-51" target="Rjii2UMoXP7_Jk80CpH7-30">
          <mxGeometry relative="1" as="geometry" />
        </mxCell>
        <mxCell id="Rjii2UMoXP7_Jk80CpH7-56" value="" style="edgeStyle=orthogonalEdgeStyle;rounded=0;orthogonalLoop=1;jettySize=auto;html=1;" edge="1" parent="1" source="Rjii2UMoXP7_Jk80CpH7-54" target="Rjii2UMoXP7_Jk80CpH7-55">
          <mxGeometry relative="1" as="geometry" />
        </mxCell>
        <mxCell id="Rjii2UMoXP7_Jk80CpH7-54" value="" style="html=1;verticalLabelPosition=bottom;align=center;labelBackgroundColor=#ffffff;verticalAlign=top;strokeWidth=2;strokeColor=#0080F0;shadow=0;dashed=0;shape=mxgraph.ios7.icons.monitor;" vertex="1" parent="1">
          <mxGeometry x="600" y="940" width="50" height="30" as="geometry" />
        </mxCell>
        <mxCell id="Rjii2UMoXP7_Jk80CpH7-55" value="Student&lt;div&gt;(async)&lt;/div&gt;" style="shape=umlActor;verticalLabelPosition=bottom;verticalAlign=top;html=1;outlineConnect=0;" vertex="1" parent="1">
          <mxGeometry x="717" y="925" width="30" height="60" as="geometry" />
        </mxCell>
        <mxCell id="Rjii2UMoXP7_Jk80CpH7-57" value="User Roles" style="rounded=0;whiteSpace=wrap;html=1;" vertex="1" parent="1">
          <mxGeometry x="865" y="850" width="120" height="20" as="geometry" />
        </mxCell>
        <mxCell id="Rjii2UMoXP7_Jk80CpH7-59" value="Main Dashboard" style="rounded=0;whiteSpace=wrap;html=1;" vertex="1" parent="1">
          <mxGeometry x="865" y="870" width="120" height="20" as="geometry" />
        </mxCell>
        <mxCell id="Rjii2UMoXP7_Jk80CpH7-60" value="Upload Data" style="rounded=0;whiteSpace=wrap;html=1;" vertex="1" parent="1">
          <mxGeometry x="865" y="890" width="120" height="20" as="geometry" />
        </mxCell>
        <mxCell id="Rjii2UMoXP7_Jk80CpH7-61" value="Front End Layout / Buttons&lt;div&gt;Back End API&lt;/div&gt;&lt;div&gt;AI&lt;/div&gt;" style="rounded=0;whiteSpace=wrap;html=1;" vertex="1" parent="1">
          <mxGeometry x="40" y="758.43" width="190" height="60" as="geometry" />
        </mxCell>
        <mxCell id="Rjii2UMoXP7_Jk80CpH7-62" style="edgeStyle=orthogonalEdgeStyle;rounded=0;orthogonalLoop=1;jettySize=auto;html=1;exitX=0.5;exitY=1;exitDx=0;exitDy=0;exitPerimeter=0;entryX=0.002;entryY=0.518;entryDx=0;entryDy=0;entryPerimeter=0;" edge="1" parent="1" source="Rjii2UMoXP7_Jk80CpH7-30" target="Rjii2UMoXP7_Jk80CpH7-54">
          <mxGeometry relative="1" as="geometry" />
        </mxCell>
      </root>
    </mxGraphModel>
  </diagram>
</mxfile>
